<svg width="48" height="48" viewBox="0 0 48 48" fill="none" xmlns="http://www.w3.org/2000/svg">
  <path d="M40 10H8C5.79086 10 4 11.7909 4 14V34C4 36.2091 5.79086 38 8 38H40C42.2091 38 44 36.2091 44 34V14C44 11.7909 42.2091 10 40 10Z" stroke="#4FC3F7" stroke-width="2" stroke-linecap="round" stroke-linejoin="round"/>
  <path d="M24 30C27.3137 30 30 27.3137 30 24C30 20.6863 27.3137 18 24 18C20.6863 18 18 20.6863 18 24C18 27.3137 20.6863 30 24 30Z" stroke="#4FC3F7" stroke-width="2" stroke-linecap="round" stroke-linejoin="round"/>
  <path d="M36 18H36.01" stroke="#4FC3F7" stroke-width="2" stroke-linecap="round" stroke-linejoin="round"/>
</svg> 